{"title":"Rushlights 2013 DVDRip XViD juggs","uid":8657654,"size":736899079,"categoryP":"video","categoryS":"movies","magnet":"?xt=urn:btih:47a84116595bfbbb0c7ce7bd74c9e390e8818cd3&amp;dn=Rushlights+2013+DVDRip+XViD+juggs&amp;tr=udp%3A%2F%2Ftracker.openbittorrent.com%3A80&amp;tr=udp%3A%2F%2Fopen.demonii.com%3A1337&amp;tr=udp%3A%2F%2Ftracker.coppersurfer.tk%3A6969&amp;tr=udp%3A%2F%2Fexodus.desync.com%3A6969","seeders":2,"leechers":2,"uploader":"juggs99","files":3,"time":1373244362,"description":"Source : F0RFUN(Thanks)\n &lt;a href=&quot;\nhttp://www.imdb.com/title/tt1536437/&quot; rel=&quot;nofollow&quot; target=&quot;_NEW&quot;&gt;\nhttp://www.imdb.com/title/tt1536437/&lt;/a&gt;\n\nFormat                                   : AVI\nFormat/Info                              : Audio Video Interleave\nFile size                                : 696 MiB\nDuration                                 : 1h 36mn\nOverall bit rate                         : 1 010 Kbps\nWriting library                          : VirtualDub build 32842/release\n\nVideo\nID                                       : 0\nFormat                                   : MPEG-4 Visual\nFormat profile                           : Advanced Simple@L5\nFormat settings, BVOP                    : 2\nFormat settings, QPel                    : No\nFormat settings, GMC                     : No warppoints\nFormat settings, Matrix                  : Default (H.263)\nMuxing mode                              : Packed bitstream\nCodec ID                                 : XVID\nCodec ID/Hint                            : XviD\nDuration                                 : 1h 36mn\nBit rate                                 : 872 Kbps\nWidth                                    : 640 pixels\nHeight                                   : 272 pixels\nDisplay aspect ratio                     : 2.35:1\nFrame rate                               : 25.000 fps\nColor space                              : YUV\nChroma subsampling                       : 4:2:0\nBit depth                                : 8 bits\nScan type                                : Progressive\nCompression mode                         : Lossy\nBits/(Pixel*Frame)                       : 0.200\nStream size                              : 601 MiB (86%)\nWriting library                          : XviD 64\n\nAudio\nID                                       : 1\nFormat                                   : MPEG Audio\nFormat version                           : Version 1\nFormat profile                           : Layer 3\nCodec ID                                 : 55\nCodec ID/Hint                            : MP3\nDuration                                 : 1h 36mn\nBit rate mode                            : Constant\nBit rate                                 : 128 Kbps\nChannel(s)                               : 2 channels\nSampling rate                            : 44.1 KHz\nCompression mode                         : Lossy\nStream size                              : 88.2 MiB (13%)\nAlignment                                : Split accross interleaves\nInterleave, duration                     : 40 ms (1.00 video frame)\nInterleave, preload duration             : 500 ms\nWriting library                          : LAME3.99r\n\nPlot\nBilly and Sarah, two delinquent teenage lovers from the suburbs of Los Angeles, travel to a small southern town to falsely claim a dead friend's inheritance.\n &lt;a href=&quot;\nhttp://img194.imageshack.us/img194/9923/1b2a.png&quot; rel=&quot;nofollow&quot; target=&quot;_NEW&quot;&gt;\nhttp://img194.imageshack.us/img194/9923/1b2a.png&lt;/a&gt; &lt;a href=&quot;\nhttp://img40.imageshack.us/img40/3097/svb.png&quot; rel=&quot;nofollow&quot; target=&quot;_NEW&quot;&gt;\nhttp://img40.imageshack.us/img40/3097/svb.png&lt;/a&gt; &lt;a href=&quot;\nhttp://img41.imageshack.us/img41/8351/g1dt.png&quot; rel=&quot;nofollow&quot; target=&quot;_NEW&quot;&gt;\nhttp://img41.imageshack.us/img41/8351/g1dt.png&lt;/a&gt;","torrent":{"xt":"urn:btih:47a84116595bfbbb0c7ce7bd74c9e390e8818cd3","amp;dn":"Rushlights+2013+DVDRip+XViD+juggs","amp;tr":["udp%3A%2F%2Ftracker.openbittorrent.com%3A80","udp%3A%2F%2Fopen.demonii.com%3A1337","udp%3A%2F%2Ftracker.coppersurfer.tk%3A6969","udp%3A%2F%2Fexodus.desync.com%3A6969"],"infoHash":"47a84116595bfbbb0c7ce7bd74c9e390e8818cd3","infoHashBuffer":{"type":"Buffer","data":[71,168,65,22,89,91,251,187,12,124,231,189,116,201,227,144,232,129,140,211]},"announce":[],"urlList":[]}}